<?xml version="1.0" encoding="UTF-8"?>
<svg width="38px" height="28px" viewBox="0 0 38 28" version="1.1" xmlns="http://www.w3.org/2000/svg" xmlns:xlink="http://www.w3.org/1999/xlink">
    <title>mail copy 2</title>
    <defs>
        <filter id="filter-1">
            <feColorMatrix in="SourceGraphic" type="matrix" values="0 0 0 0 1.000000 0 0 0 0 1.000000 0 0 0 0 1.000000 0 0 0 1.000000 0"></feColorMatrix>
        </filter>
    </defs>
    <g id="Page-1" stroke="none" stroke-width="1" fill="none" fill-rule="evenodd">
        <g filter="url(#filter-1)" id="mail-copy-2">
            <g>
                <path d="M37.6895281,2 L27,14 L37.6895281,26 C37.8827641,25.5436579 38,25.0391693 38,24.500457 L38,3.49954304 C38,2.96075292 37.8827641,2.45634208 37.6895281,2 Z" id="Path" fill="#000000" fill-rule="nonzero"></path>
                <path d="M34.5767569,0 L3.42324311,0 C2.91186778,0 2.43312243,0.134571941 2,0.356382534 L16.6512318,15.960011 C17.9466864,17.346663 20.0533136,17.346663 21.3487682,15.960011 L36,0.356382534 C35.5668776,0.134571941 35.0881322,0 34.5767569,0 Z" id="Path" fill="#000000" fill-rule="nonzero"></path>
                <path d="M0.310471935,2 C0.117235855,2.45634208 0,2.96075292 0,3.49954304 L0,24.500457 C0,25.0392471 0.117235855,25.5437357 0.310471935,26 L11,14 L0.310471935,2 Z" id="Path" fill="#000000" fill-rule="nonzero"></path>
                <path d="M24.5367619,16 L22.9146383,17.6605432 C20.7561132,19.8701925 17.2438129,19.8701925 15.0852878,17.6605432 L13.4632381,16 L2,27.6591703 C2.43312243,27.8713009 2.91186778,28 3.42324311,28 L34.5767569,28 C35.0881322,28 35.5668776,27.8713009 36,27.6591703 L24.5367619,16 Z" id="Path" fill="#000000" fill-rule="nonzero"></path>
            </g>
        </g>
    </g>
</svg>